<svg width="26" height="26" viewBox="0 0 26 26" fill="none" xmlns="http://www.w3.org/2000/svg">
    <path d="M24.479 19.8592C24.479 19.8592 25.9922 22.3161 23.8589 23.9416C21.8496 25.4554 19.8899 23.3708 19.8899 23.3708L11.5054 14.9704L19.0837 9.54791L24.479 19.8717V19.8592Z" fill="#45A0F4"></path>
    <path d="M14.9037 20.4673C19.8631 20.4673 23.8835 16.4452 23.8835 11.4836C23.8835 6.52211 19.8631 2.5 14.9037 2.5C9.94424 2.5 5.92383 6.52211 5.92383 11.4836C5.92383 16.4452 9.94424 20.4673 14.9037 20.4673Z" fill="url(#paint0_linear_6_98)"></path>
    <path d="M14.3084 13.6179L12.1751 11.434C12.0263 11.2603 11.9891 11.037 12.0635 10.826L13.2914 8.12099C13.4278 7.6867 13.3534 7.2524 13.1053 6.92979C12.8573 6.59476 12.4728 6.39623 12.0511 6.39623C11.9022 6.39623 11.741 6.42104 11.6046 6.47068L11.555 6.49549L9.21077 7.74874C8.87589 7.89764 8.68984 7.87282 8.39217 7.66188L6.04798 5.75099C5.81232 5.57728 5.55186 5.49042 5.27899 5.49042C4.9317 5.49042 4.58442 5.63932 4.33635 5.88748C4.08829 6.14806 3.96426 6.48309 3.97666 6.84293C3.97666 6.86774 3.97666 6.89256 3.97666 6.90497L4.41077 9.88297C4.43558 10.1187 4.32395 10.3421 4.1255 10.4662L1.59527 11.8683C1.59527 11.8683 1.54566 11.9055 1.52085 11.9179C1.12395 12.2157 0.925501 12.7121 1.01232 13.196C1.09914 13.6923 1.45883 14.077 1.94256 14.2135L4.95651 14.7967C5.16736 14.8463 5.341 15.02 5.40302 15.231L6.01077 18.0477C6.20922 18.6309 6.70535 18.9907 7.26349 18.9907C7.69759 18.9907 8.1069 18.7798 8.34256 18.4075L9.66969 15.7645C9.78131 15.5784 9.99217 15.4667 10.2154 15.4667L13.2666 15.7397C13.7999 15.7397 14.2464 15.4543 14.4573 14.9952C14.6681 14.5485 14.6185 14.015 14.3084 13.6179Z" fill="#FFD76E"></path>
    <defs>
        <linearGradient id="paint0_linear_6_98" x1="14.9037" y1="2.5" x2="23.8888" y2="20.4361" gradientUnits="userSpaceOnUse">
            <stop stop-color="#52E6DD"></stop>
            <stop offset="1" stop-color="#49E6F0"></stop>
        </linearGradient>
    </defs>
</svg>