<svg width="20" height="18" viewBox="0 0 20 18" fill="none" xmlns="http://www.w3.org/2000/svg">   
    <path d="M17.7403 13.2023L16.3865 10.844C16.8756 9.9444 17.1551 8.9225 17.1551 7.83072C17.1551 7.61236 17.1464 7.40274 17.1202 7.18439C17.0765 6.76514 16.9891 6.3459 16.8669 5.95286C16.6834 5.35894 16.4127 4.80868 16.0721 4.30209C15.9585 4.13614 15.8362 3.97019 15.7139 3.82171C15.4607 3.50728 15.1724 3.22779 14.858 2.96576C13.7662 2.06613 12.3775 1.52461 10.849 1.52461C9.3205 1.52461 7.93176 2.06613 6.83998 2.96576C6.52555 3.21905 6.24605 3.50728 5.98402 3.82171C5.85301 3.97893 5.73073 4.13614 5.62592 4.30209C5.58225 4.36323 5.55605 4.43311 5.52111 4.49425L4.96212 4.08374C4.7263 3.91779 4.473 3.83045 4.20224 3.83045C3.86161 3.83045 3.52097 3.97019 3.28515 4.22349C3.04933 4.46804 2.91831 4.80868 2.92705 5.15805C2.92705 5.18425 2.92705 5.20172 2.92705 5.22792L3.10173 7.03591L1.62565 7.96173C1.62565 7.96173 1.57324 7.99667 1.54704 8.01414C1.154 8.30237 0.970582 8.78275 1.05792 9.26313C1.14527 9.74351 1.49464 10.1278 1.96628 10.2588L3.76553 10.713L4.23718 12.3812C4.23718 12.3812 4.24592 12.4162 4.25465 12.4337C4.42933 12.949 4.91845 13.2983 5.45997 13.2983C5.88795 13.2983 6.28099 13.0887 6.51681 12.7306L6.64783 12.5297C7.75707 13.5254 9.22442 14.1281 10.8315 14.1281C11.2246 14.1281 11.6001 14.0844 11.9757 14.0233L13.8012 16.0933C14.4737 16.8357 15.1724 16.9842 15.6441 16.9842C16.1681 16.9842 16.6922 16.8008 17.1202 16.4689C17.6355 16.0671 17.8451 15.6566 17.9761 15.3159C18.2294 14.6521 18.1333 13.8835 17.7228 13.2023H17.7403ZM7.0758 10.0579H7.06707C7.0234 10.0579 6.98846 10.0754 6.95352 10.0841C6.93605 10.0841 6.90985 10.0841 6.89238 10.1016C6.84871 10.1278 6.80504 10.1715 6.7701 10.2239L6.51681 10.6257L5.87048 11.665L5.59972 12.1018C5.59972 12.1018 5.52985 12.1629 5.48617 12.1629C5.48617 12.1629 5.48617 12.1629 5.47744 12.1629C5.47744 12.1629 5.46871 12.1629 5.45997 12.1629C5.4163 12.1542 5.37263 12.128 5.35516 12.0755L4.76123 9.9706C4.7263 9.84832 4.63022 9.76098 4.50794 9.72604L2.29818 9.16705C2.24578 9.14959 2.21084 9.10592 2.20211 9.06224C2.19337 9.00984 2.20211 8.95743 2.25451 8.9225L4.09743 7.76958C4.24592 7.68224 4.31579 7.54249 4.29832 7.35907L4.07996 5.12311C4.07996 5.12311 4.09743 5.05324 4.1149 5.02703C4.1149 5.02703 4.12364 5.0183 4.13237 5.00957C4.15857 4.9921 4.18478 4.98336 4.21098 4.97463H4.21971C4.21971 4.97463 4.27212 4.97463 4.29832 5.00083L6.24605 6.44198L6.36833 6.45945L8.48201 5.55982C8.48201 5.55982 8.51695 5.55982 8.53442 5.55982C8.53442 5.55982 8.53442 5.55982 8.54315 5.55982C8.57809 5.55982 8.61303 5.57729 8.63923 5.60349C8.63923 5.60349 8.63923 5.61223 8.64796 5.62096C8.66543 5.6559 8.6829 5.69084 8.66543 5.73451L7.92302 7.86566C7.89682 7.93553 7.89682 7.99667 7.90555 8.05781C7.91429 8.11895 7.94922 8.16262 7.98416 8.20629L9.42531 9.88326C9.49518 9.9706 9.42531 10.1016 9.3205 10.1104L7.08454 10.0667L7.0758 10.0579ZM10.8577 13.0014C9.46898 13.0014 8.21125 12.4511 7.28542 11.5515L7.50378 11.2021L9.29429 11.2371C9.81835 11.2371 10.2551 10.9576 10.4647 10.5121C10.6743 10.0754 10.6219 9.56009 10.3162 9.17579C10.3075 9.16705 10.2987 9.14959 10.2813 9.14085L9.13708 7.80452L9.73101 6.10134C9.86202 5.6821 9.79215 5.25412 9.55632 4.93096C9.3205 4.60779 8.93619 4.4069 8.53442 4.4069C8.38594 4.4069 8.23745 4.43311 8.09771 4.48551C8.08024 4.48551 8.06277 4.50298 8.0453 4.50298L6.46441 5.17552H6.45567C7.36403 3.67323 8.99733 2.66006 10.8752 2.66006C13.7225 2.66006 16.0371 4.97463 16.0371 7.82198C16.0371 10.6693 13.7225 12.9839 10.8752 12.9839L10.8577 13.0014ZM16.928 14.9229C16.8494 15.1413 16.7446 15.3421 16.4389 15.578C16.1856 15.7701 15.8886 15.8487 15.6615 15.8487C15.6179 15.8487 15.5655 15.84 15.5218 15.8313C15.4869 15.8313 15.4519 15.8313 15.417 15.8138C15.3646 15.8051 15.3209 15.7789 15.2685 15.7614C15.2336 15.7439 15.1986 15.7439 15.1637 15.7265C15.1026 15.7003 15.0414 15.6566 14.989 15.6129C14.9628 15.5954 14.9453 15.5867 14.9191 15.5692C14.8405 15.5081 14.7532 15.4295 14.6746 15.3421L13.2072 13.6739C14.168 13.2896 15.0152 12.6695 15.679 11.8834L16.7708 13.7875C17.0066 14.1805 17.0503 14.5997 16.9367 14.9142L16.928 14.9229Z" fill="#8E8E8E"></path>
</svg>