<svg width="20" height="18" viewBox="0 0 20 18" fill="none" xmlns="http://www.w3.org/2000/svg">   
    <path d="M17.447 13.7487C17.447 13.7487 18.4946 15.4496 17.0177 16.575C15.6266 17.623 14.2699 16.1798 14.2699 16.1798L8.46527 10.3641L13.7118 6.61009L17.447 13.7573V13.7487Z" fill="#45A0F4"></path>
    <path d="M10.8179 14.1697C14.2514 14.1697 17.0347 11.3851 17.0347 7.95021C17.0347 4.51531 14.2514 1.73077 10.8179 1.73077C7.38447 1.73077 4.6011 4.51531 4.6011 7.95021C4.6011 11.3851 7.38447 14.1697 10.8179 14.1697Z" fill="url(#paint0_linear_22_81)"></path>
    <path d="M10.4058 9.42776L8.92892 7.91585C8.82587 7.79559 8.80011 7.64096 8.85163 7.49493L9.70172 5.62222C9.79618 5.32156 9.74466 5.02089 9.57292 4.79754C9.40119 4.5656 9.135 4.42815 8.84305 4.42815C8.74001 4.42815 8.62838 4.44534 8.53393 4.4797L8.49958 4.49688L6.87668 5.36451C6.64484 5.46759 6.51604 5.45041 6.30995 5.30437L4.68705 3.98145C4.52391 3.86119 4.34358 3.80106 4.15468 3.80106C3.91425 3.80106 3.67382 3.90414 3.50208 4.07595C3.33035 4.25635 3.24448 4.48829 3.25307 4.73741C3.25307 4.75459 3.25307 4.77177 3.25307 4.78036L3.5536 6.84206C3.57078 7.00527 3.49349 7.1599 3.35611 7.2458L1.60441 8.21652C1.60441 8.21652 1.57006 8.24229 1.55289 8.25088C1.27811 8.45705 1.14072 8.80067 1.20083 9.13569C1.26094 9.47931 1.50995 9.74561 1.84484 9.8401L3.93142 10.2439C4.07739 10.2782 4.19761 10.3985 4.24054 10.5445L4.66129 12.4945C4.79868 12.8983 5.14215 13.1474 5.52856 13.1474C5.82909 13.1474 6.11246 13.0014 6.27561 12.7437L7.19439 10.9139C7.27167 10.785 7.41764 10.7077 7.57221 10.7077L9.68455 10.8967C10.0538 10.8967 10.3629 10.6991 10.5089 10.3813C10.6549 10.072 10.6205 9.70266 10.4058 9.42776Z" fill="#FFD76E"></path>
    <defs>
        <linearGradient id="paint0_linear_22_81" x1="10.8179" y1="1.73077" x2="17.0384" y2="14.1481" gradientUnits="userSpaceOnUse">
            <stop stop-color="#52E6DD"></stop>
            <stop offset="1" stop-color="#49E6F0"></stop>
        </linearGradient>
    </defs>
</svg>